<?xml version="1.0" ?><svg height="76px" version="1.1" viewBox="0 0 120 76" width="120px" xmlns="http://www.w3.org/2000/svg" xmlns:xlink="http://www.w3.org/1999/xlink"><title/><desc/><defs/><g fill="none" fill-rule="evenodd" id="round-rect" stroke="none" stroke-width="1"><g id="payment_024-unionpay-card"><path d="M111.998561,0 L8.0014394,0 C3.58236644,0 0,3.58906554 0,8.00758637 L0,67.9924136 C0,72.4148815 3.59136164,76 8.0014394,76 L111.998561,76 C116.417634,76 120,72.4109345 120,67.9924136 L120,8.00758637 C120,3.58511853 116.408638,0 111.998561,0 Z" fill="#F4F4F4" id="bg"/><g id="Group-3" transform="translate(24.000000, 11.000000)"><path d="M69.1022703,1.31339261 L50.9974732,1.30816901 L50.9928072,1.30816901 C50.978813,1.30816901 50.9651264,1.31095727 50.9514435,1.31095727 C48.4642586,1.39626068 45.3665473,3.62951343 44.8023661,6.3832996 L36.2404403,48.7954908 C35.6762589,51.5749911 37.2111165,53.836691 39.680264,53.8783099 L58.7000684,53.8783099 C61.1315803,53.7436607 63.4943595,51.5360925 64.0489015,48.8135969 L72.6111423,6.40105727 C73.1843404,3.59330063 71.6124703,1.31339261 69.1022703,1.31339261" fill="#22ABBB" id="path22"/><path d="M37.538476,48.7959958 L46.2460908,6.38801844 C46.819872,3.6345056 49.9702883,1.40147473 52.4997938,1.31618007 L45.1788714,1.31095699 L31.9888704,1.30816901 C29.4523105,1.36526607 26.2608383,3.61396617 25.6872772,6.38801844 L16.9771006,48.7959958 C16.4012016,51.5752199 17.9644535,53.8366951 20.4740316,53.8783099 L41.0368296,53.8783099 C38.5256684,53.8366951 36.9646945,51.5752199 37.5384757,48.7959958" fill="#227FBB" id="path20"/><path d="M17.4095152,48.7964664 L26.032211,6.39242205 C26.6000097,3.61862231 29.759431,1.37013498 32.2705155,1.31304321 L15.5429774,1.30816901 C13.0178646,1.30816901 9.78037975,3.58242119 9.20331266,6.39242205 L0.580603377,48.7964664 C0.528129775,49.0552553 0.499018189,49.3088597 0.481649485,49.5570336 L0.481649485,50.3437095 C0.650445934,52.3694395 2.04204149,53.8445859 4.04239542,53.8783099 L20.8713256,53.8783099 C18.3869518,53.836699 16.8394001,51.5754333 17.4095152,48.7964666" fill="#E94B35" id="path16"/><g id="Group" transform="translate(9.151340, 0.334648)"><path d="M21.8612891,31.537255 L22.1923416,31.537255 C22.496545,31.537255 22.7012019,31.4124867 22.7971427,31.165433 L23.6573572,29.5916853 L25.9609746,29.5916853 L25.4806065,30.6267748 L28.2426555,30.6267748 L27.8922844,32.2127308 L24.6056541,32.2127308 C24.2271228,32.9088609 23.7611605,33.2361325 23.2008922,33.1973454 L21.488977,33.1973454 L21.8612886,31.537255 L21.8612891,31.537255 Z M21.3843138,33.9221758 L27.0147139,33.9221758 L26.6558054,35.3293541 L24.3914598,35.3293541 L24.045959,36.6876211 L26.2493694,36.6876211 L25.8904609,38.0946658 L23.6870504,38.0946658 L23.1751943,40.1017426 C23.0484484,40.4372298 23.2151085,40.588087 23.6724267,40.5538549 L25.4681816,40.5538549 L25.1354749,41.8614085 L21.6877712,41.8614085 C21.0342403,41.8614085 20.8100609,41.4602351 21.0150475,40.6560281 L21.6694877,38.0946658 L20.2610355,38.0946658 L20.618817,36.6876211 L22.0274813,36.6876211 L22.3726809,35.3293541 L21.0263205,35.3293541 L21.384314,33.9221758 L21.384314,33.9221758 L21.3843138,33.9221758 L21.3843138,33.9221758 Z M30.2546731,29.62614 L30.1683771,30.5146707 C30.1683771,30.5146707 31.2021382,29.5916853 32.1410058,29.5916853 L35.6103047,29.5916853 L34.2835553,35.3031766 C34.1735341,35.9561297 33.701731,36.2808262 32.8684319,36.2808262 L28.9362241,36.2808262 L28.0151521,40.2913938 C27.9620691,40.5063054 28.0370963,40.6165121 28.2354841,40.6165121 L29.0091734,40.6165121 L28.7247861,41.8614085 L26.7577934,41.8614085 C26.0027868,41.8614085 25.6887413,41.5914106 25.8132931,41.0490518 L28.4160799,29.62614 L30.254669,29.62614 L30.2546726,29.62614 L30.2546726,29.62614 L30.2546731,29.62614 L30.2546731,29.62614 Z M33.1544217,31.0351821 L29.8641556,31.0351821 L29.470597,32.478679 C29.470597,32.478679 30.0185549,32.0639631 30.9342346,32.0491304 C31.8473913,32.0341347 32.8897377,32.0491304 32.8897377,32.0491304 L33.1544217,31.0351821 L33.1544217,31.0351821 L33.1544217,31.0351821 L33.1544217,31.0351821 Z M31.9245857,34.6394694 C32.1754813,34.6627535 32.3158779,34.5948138 32.3327782,34.4344706 L32.5404509,33.9221758 L29.1416479,33.9221758 L28.8566263,34.6394694 L31.9245857,34.6394694 L31.9245857,34.6394694 L31.9245857,34.6394694 L31.9245857,34.6394694 Z M29.6056537,36.0874211 L31.3704059,36.0874211 L31.3376171,37.0976267 L31.8074932,37.0976267 C32.0449202,37.0976267 32.1626101,36.9970545 32.1626101,36.798576 L32.3016706,36.1450492 L33.7683924,36.1450492 L33.5725383,37.0976267 C33.4068358,37.8921601 32.9676973,38.3066606 32.2539506,38.3472083 L31.313902,38.3472083 L31.3095099,40.0740669 C31.292238,40.3506198 31.4813592,40.4915885 31.87073,40.4915885 L32.7542783,40.4915885 L32.4691278,41.8588656 L30.3498485,41.8588656 C29.7558393,41.8962364 29.4645455,41.52182 29.4706923,40.727594 L29.6056537,36.0874214 L29.6056537,36.0874211 Z" fill="#FFFFFF" id="path24"/><path d="M8.38348624,21.7399154 C8.14345322,23.1004746 7.58702968,24.1454657 6.72392777,24.8875532 C5.86866612,25.6170772 4.76553307,25.9829432 3.41496992,25.9829432 C2.14396715,25.9829432 1.21216902,25.6093685 0.617548166,24.8597049 C0.205154109,24.3270567 0,23.6506138 0,22.832758 C0,22.4946039 0.0349944556,22.1311157 0.104837515,21.7399157 L1.54382814,13.7132203 L3.71715345,13.7132203 L2.29774542,21.649034 C2.25406025,21.8686965 2.23662174,22.0731445 2.23891167,22.2574174 C2.23662174,22.6639003 2.32387371,22.9969947 2.5006103,23.256866 C2.75808112,23.6431762 3.17596538,23.8348885 3.75749132,23.8348885 C4.42621194,23.8348885 4.97723475,23.6457236 5.40489552,23.26444 C5.83264413,22.8858387 6.1118987,22.3482985 6.23734564,21.6490338 L7.66121728,13.71322 L9.82353234,13.71322 L8.38348624,21.7399154" fill="#FFFFFF" id="path28"/><path d="M17.9237291,18.765459 L19.6470647,18.765459 L18.2971574,25.9829432 L16.5772108,25.9829432 L17.9237291,18.765459 M18.7089362,15.8784653 L20.2610355,15.8784653 L19.9711171,18.0437105 L18.4191231,18.0437105 L18.7089362,15.8784653" fill="#FFFFFF" id="path34"/><path d="M20.3063628,25.9361581 C19.8696718,25.4175518 19.649195,24.7180494 19.6470647,23.8297066 C19.6470647,23.6780106 19.6544943,23.5052373 19.6706792,23.3162529 C19.686776,23.1247282 19.7071371,22.9385353 19.7359349,22.7657621 C19.9339203,21.5396723 20.355636,20.5661945 21.0051718,19.8479757 C21.6537005,19.1272167 22.4361402,18.765459 23.3521988,18.765459 C24.1023848,18.765459 24.6973464,19.0261588 25.1330585,19.5474493 C25.5684822,20.0714942 25.7867724,20.7788336 25.7867724,21.6780928 C25.7867724,21.8321126 25.7772668,22.0103619 25.7611418,22.2018514 C25.7418461,22.3960233 25.7185214,22.5822162 25.6914498,22.7657618 C25.497929,23.9732424 25.0774807,24.9361268 24.4277988,25.6410703 C23.7781205,26.351201 22.9979835,26.7046916 22.0882595,26.7046916 C21.3349096,26.7046916 20.7419588,26.4494676 20.3063628,25.9361578 M23.5238687,24.3377434 C23.8319426,23.9652049 24.0525945,23.4000035 24.1870353,22.6475574 C24.2072329,22.5300832 24.2250169,22.4074966 24.2361701,22.2850103 C24.2473232,22.1649121 24.2518455,22.0524172 24.2518455,21.9499134 C24.2518455,21.512313 24.152071,21.1723701 23.9516131,20.9322764 C23.7523621,20.689692 23.4690084,20.56983 23.1027588,20.56983 C22.6186491,20.56983 22.224364,20.759598 21.9153886,21.1397724 C21.6037013,21.5199489 21.3830493,22.0949732 21.2440826,22.8600675 C21.2250917,22.9775417 21.20942,23.0951492 21.1949478,23.2101349 C21.1837948,23.3276091 21.1804792,23.4376154 21.1825914,23.5375956 C21.1825914,23.9727077 21.2823659,24.3078043 21.4828238,24.5452412 C21.6820748,24.7828466 21.9642215,24.9003205 22.3352954,24.9003205 C22.8215173,24.9003205 23.2157986,24.7128051 23.5238687,24.3377431" fill="#FFFFFF" id="path36"/><path fill="#E02F41" id="path14"/><path fill="#2E4F7D" id="path18"/><path d="M37.3424486,31.3297823 L37.7575688,29.5916853 L39.8563347,29.5916853 L39.7657669,30.2295169 C39.7657669,30.2295169 40.8383101,29.5916853 41.6106487,29.5916853 L44.2058955,29.5916853 L43.7934469,31.3297823 L43.3851559,31.3297823 L41.4274359,39.5272023 L41.8357269,39.5272023 L41.447332,41.1551498 L41.039041,41.1551498 L40.8691929,41.8614085 L38.8366438,41.8614085 L39.0061983,41.1551498 L34.996334,41.1551498 L35.3871065,39.5272023 L35.7888659,39.5272023 L37.7483656,31.3297823 L37.3424489,31.3297823 L37.3424486,31.3297823 Z M39.7619539,31.7569308 L39.2941294,33.9221758 C39.2941294,33.9221758 40.0945552,33.5149163 40.7844576,33.3996204 C40.9368479,32.6435087 41.1360417,31.7569305 41.1360417,31.7569305 L39.7619537,31.7569305 L39.7619537,31.7569305 L39.7619539,31.7569308 L39.7619539,31.7569308 Z M38.53412,35.3656727 L38.0661878,37.5309179 C38.0661878,37.5309179 38.9504603,36.9779951 39.5573455,36.9314473 C39.732593,36.0946093 39.9081001,35.3656729 39.9081001,35.3656729 L38.53412,35.3656729 L38.53412,35.3656729 L38.53412,35.3656727 L38.53412,35.3656727 Z M39.5325591,39.6961632 L39.9081001,37.5309179 L38.4436771,37.5309179 L38.0661878,39.6961632 L39.5325591,39.6961632 L39.5325591,39.6961632 L39.5325591,39.6961632 L39.5325591,39.6961632 Z M44.2058955,29.5916853 L46.4193456,29.5916853 L46.5132822,30.5308535 C46.4986237,30.7699451 46.6222066,30.8841264 46.8846899,30.8841264 L47.2757494,30.8841264 L46.880026,32.4753754 L45.2531651,32.4753754 C44.6319322,32.5123371 44.3124861,32.2392718 44.2828436,31.6497409 L44.2058955,29.5916853 L44.2058955,29.5916853 L44.2058955,29.5916853 L44.2058955,29.5916853 Z M43.9546573,33.2004274 L50.3456033,33.2004274 L49.9705907,34.6783136 L47.9357842,34.6783136 L47.586901,36.0524088 L49.6196305,36.0524088 L49.2422404,37.527878 L46.9782112,37.527878 L46.466021,38.392599 L47.5741355,38.392599 L47.8300819,40.1239626 C47.860662,40.2963833 47.9975464,40.3801243 48.2315208,40.3801243 L48.5756523,40.3801243 L48.2139998,41.8059824 L46.9957322,41.8059824 C46.3644761,41.8406787 46.0381592,41.6042011 46.0114355,41.0944309 L45.7177793,39.5132148 L44.7094339,41.1954045 C44.4710047,41.6707134 44.1046005,41.8924782 43.6105258,41.8579116 L41.7500125,41.8579116 L42.1119586,40.4316568 L42.6924422,40.4316568 C42.9308714,40.4316568 43.1292131,40.3134505 43.3079608,40.0746188 L44.8861012,37.527878 L42.8512947,37.527878 L43.2283876,36.0524088 L45.4354066,36.0524088 L45.7863666,34.6783136 L43.5772708,34.6783136 L43.9546573,33.2004274 L43.9546573,33.2004274 Z" fill="#FFFFFF" id="path26"/><path d="M10.4100771,18.9439333 L11.8982324,18.9439333 L11.7280278,19.9600908 L11.9416105,19.670136 C12.4240188,19.0654502 13.0099456,18.765459 13.7017237,18.765459 C14.3278962,18.765459 14.7795092,18.9787153 15.0630228,19.4073939 C15.3421815,19.8362393 15.4183475,20.4286541 15.2862816,21.1895394 L14.4664227,25.9829432 L12.9369967,25.9829432 L13.6773592,21.6381605 C13.75364,21.1895396 13.7325207,20.8548984 13.6148858,20.6391752 C13.4987015,20.4235862 13.276438,20.3171411 12.9560086,20.3171411 C12.5625453,20.3171411 12.2314425,20.4607009 11.9617325,20.7458542 C11.6908846,21.03334 11.5122269,21.4324734 11.4243919,21.9404861 L10.7421754,25.9829432 L9.20956157,25.9829432 L10.4100771,18.9439333" fill="#FFFFFF" id="path30"/><path d="M28.2151447,18.9439333 L29.7047916,18.9439333 L29.5357026,19.9600908 L29.7469246,19.670136 C30.2297141,19.0654502 30.8178313,18.765459 31.5075724,18.765459 C32.1338337,18.765459 32.5864506,18.9787153 32.8676955,19.4073939 C33.1452431,19.8362393 33.2255205,20.4286541 33.0900198,21.1895394 L32.2733163,25.9829432 L30.7415397,25.9829432 L31.4822366,21.6381605 C31.5582397,21.1895396 31.5371747,20.8548984 31.4207482,20.6391752 C31.3000508,20.4235862 31.081997,20.3171411 30.7628895,20.3171411 C30.3692,20.3171411 30.0392719,20.4607009 29.7662798,20.7458542 C29.4952789,21.03334 29.3156574,21.4324734 29.2311096,21.9404861 L28.5456392,25.9829432 L27.0147139,25.9829432 L28.2151442,18.9439333" fill="#FFFFFF" id="path32"/><path d="M35.8355519,13.71322 L40.3110076,13.71322 C41.1715121,13.71322 41.8369964,13.9507943 42.2945,14.4173304 C42.7499394,14.8896097 42.977954,15.567164 42.977954,16.4499942 L42.977954,16.4765506 C42.977954,16.6445045 42.9688235,16.8339877 42.9558595,17.039267 C42.9337651,17.2420285 42.9051905,17.4473044 42.8683664,17.6608347 C42.6712854,18.8291486 42.213487,19.7681064 41.5064641,20.4802559 C40.7967909,21.1897152 39.9563168,21.5471896 38.98858,21.5471896 L36.5885293,21.5471896 L35.8464516,25.9829432 L33.7683924,25.9829432 L35.8355516,13.7132203 M36.8382468,19.8480816 L39.0419367,19.8480816 C39.6162582,19.8480816 40.0718666,19.6712619 40.4041951,19.3215529 C40.73392,18.9684301 40.9521018,18.4292453 41.0730963,17.6973922 C41.092341,17.5622071 41.1044077,17.4404108 41.1190822,17.3281153 C41.1265828,17.2223004 41.1360417,17.1160533 41.1360417,17.0136905 C41.1360417,16.4902276 40.9958025,16.1114541 40.7143486,15.8739089 C40.4332213,15.632905 39.9922913,15.5175911 39.3811124,15.5175911 L37.5097552,15.5175911 L36.8382463,19.8480816" fill="#FFFFFF" id="path38"/><path d="M52.293612,27.3764488 C51.6512324,28.9978308 51.0391007,29.9431346 50.6795998,30.3828557 C50.3195223,30.8176512 49.6068572,31.8292256 47.8897202,31.7528324 L48.0374962,30.5152259 C49.482416,29.9865616 50.2639284,27.6048752 50.7092711,26.550285 L50.1783712,18.7832393 L51.2960531,18.765459 L52.2336928,18.765459 L52.3345145,23.6376761 L54.0919809,18.765459 L55.8713402,18.765459 L52.2936118,27.3764488" fill="#FFFFFF" id="path40"/><path d="M46.8419233,19.6853351 L46.136633,20.2922331 C45.399729,19.5705738 44.7269156,19.1241123 43.4284267,19.8778159 C41.6594544,20.9042018 40.181338,28.7764341 45.0516834,26.1835146 L45.3293164,26.5951266 L47.2454358,26.6566616 L48.5036909,19.503536 L46.8419233,19.6853354 M45.8836006,23.4938788 C45.5480266,24.6682695 44.7985424,25.4446159 44.2116782,25.2236043 C43.6248137,25.008095 43.415195,23.8750827 43.7551558,22.6980891 C44.0904199,21.5209503 44.8449146,20.7473544 45.4270782,20.9684023 C46.0139464,21.1839115 46.225757,22.316738 45.8836006,23.4938788" fill="#FFFFFF" id="path42"/></g></g></g></g></svg>